<mxfile host="app.diagrams.net" agent="Mozilla/5.0 (Windows NT 10.0; Win64; x64) AppleWebKit/537.36 (KHTML, like Gecko) Chrome/139.0.0.0 Safari/537.36" version="28.2.1">
  <diagram name="P치gina-1" id="VpqWFizLWBl7uZToy6sP">
    <mxGraphModel dx="3144" dy="1804" grid="1" gridSize="10" guides="1" tooltips="1" connect="1" arrows="1" fold="1" page="1" pageScale="1" pageWidth="827" pageHeight="1169" background="light-dark(#E9FDEA,#E9FDEA)" math="0" shadow="0">
      <root>
        <mxCell id="0" />
        <mxCell id="1" parent="0" />
        <mxCell id="2SMcXpaMJ3ifrrONPYiS-1" value="&lt;font style=&quot;color: light-dark(rgb(0, 0, 0), rgb(4, 4, 4));&quot;&gt;Usu치rio&lt;/font&gt;" style="shape=umlActor;verticalLabelPosition=bottom;verticalAlign=top;html=1;outlineConnect=0;strokeColor=light-dark(#000000,#000000);fontColor=light-dark(#000000,#FFFFFF);fontStyle=1;fillColor=light-dark(#00813B,#00813B);" parent="1" vertex="1">
          <mxGeometry x="54" y="599" width="50" height="100" as="geometry" />
        </mxCell>
        <mxCell id="2SMcXpaMJ3ifrrONPYiS-2" value="&lt;span&gt;Efetuar login&lt;/span&gt;" style="ellipse;whiteSpace=wrap;html=1;strokeColor=light-dark(#000000,#000000);fontColor=light-dark(#FFFFFF,#FFFFFF);fillColor=light-dark(#00813B,#00813B);fontStyle=1" parent="1" vertex="1">
          <mxGeometry x="169" y="607.5" width="148.75" height="70" as="geometry" />
        </mxCell>
        <mxCell id="2SMcXpaMJ3ifrrONPYiS-9" value="Cadastrar-se" style="ellipse;whiteSpace=wrap;html=1;strokeColor=light-dark(#000000,#000000);fontColor=light-dark(#FFFFFF,#FFFFFF);fontStyle=1;fillColor=light-dark(#00813B,#00813B);" parent="1" vertex="1">
          <mxGeometry x="169" y="762.5" width="148.75" height="70" as="geometry" />
        </mxCell>
        <mxCell id="2SMcXpaMJ3ifrrONPYiS-14" value="Validar credenciais" style="ellipse;whiteSpace=wrap;html=1;strokeColor=light-dark(#000000,#000000);fontColor=light-dark(#FFFFFF,#FFFFFF);fontStyle=1;fillColor=light-dark(#00813B,#00813B);" parent="1" vertex="1">
          <mxGeometry x="731" y="607.5" width="148.75" height="70" as="geometry" />
        </mxCell>
        <mxCell id="2SMcXpaMJ3ifrrONPYiS-15" value="&lt;font style=&quot;color: light-dark(rgb(0, 0, 0), rgb(4, 4, 4));&quot;&gt;&amp;lt;&amp;lt;include&amp;gt;&amp;gt;&lt;/font&gt;" style="html=1;verticalAlign=bottom;labelBackgroundColor=none;endArrow=open;endFill=0;dashed=1;rounded=0;exitX=1;exitY=0.5;exitDx=0;exitDy=0;entryX=0;entryY=0.5;entryDx=0;entryDy=0;strokeColor=light-dark(#000000,#000000);fontColor=light-dark(#000000,#FFFFFF);fontStyle=1;strokeWidth=2;" parent="1" source="2SMcXpaMJ3ifrrONPYiS-2" target="2SMcXpaMJ3ifrrONPYiS-14" edge="1">
          <mxGeometry x="0.7725" width="160" relative="1" as="geometry">
            <mxPoint x="394" y="649" as="sourcePoint" />
            <mxPoint x="494" y="649" as="targetPoint" />
            <mxPoint as="offset" />
          </mxGeometry>
        </mxCell>
        <mxCell id="2SMcXpaMJ3ifrrONPYiS-18" value="Preencher formul치rio&amp;nbsp;&lt;div&gt;inicial&lt;/div&gt;" style="ellipse;whiteSpace=wrap;html=1;strokeColor=light-dark(#000000,#000000);fontColor=light-dark(#FFFFFF,#FFFFFF);fontStyle=1;fillColor=light-dark(#00813B,#00813B);" parent="1" vertex="1">
          <mxGeometry x="454" y="762.5" width="148.75" height="70" as="geometry" />
        </mxCell>
        <mxCell id="2SMcXpaMJ3ifrrONPYiS-19" value="&lt;font style=&quot;color: light-dark(rgb(0, 0, 0), rgb(0, 0, 0));&quot;&gt;&amp;lt;&amp;lt;include&amp;gt;&amp;gt;&lt;/font&gt;" style="html=1;verticalAlign=bottom;labelBackgroundColor=none;endArrow=open;endFill=0;dashed=1;rounded=0;exitX=1;exitY=0.5;exitDx=0;exitDy=0;entryX=0;entryY=0.5;entryDx=0;entryDy=0;strokeColor=light-dark(#000000,#000000);fontColor=light-dark(#000000,#FFFFFF);fontStyle=1;strokeWidth=2;" parent="1" source="2SMcXpaMJ3ifrrONPYiS-9" target="2SMcXpaMJ3ifrrONPYiS-18" edge="1">
          <mxGeometry x="0.3663" width="160" relative="1" as="geometry">
            <mxPoint x="239" y="857.5" as="sourcePoint" />
            <mxPoint x="340" y="857.5" as="targetPoint" />
            <mxPoint as="offset" />
          </mxGeometry>
        </mxCell>
        <mxCell id="2SMcXpaMJ3ifrrONPYiS-20" value="Criar perfil" style="ellipse;whiteSpace=wrap;html=1;strokeColor=light-dark(#000000,#000000);fontColor=light-dark(#FFFFFF,#FFFFFF);fontStyle=1;fillColor=light-dark(#00813B,#00813B);" parent="1" vertex="1">
          <mxGeometry x="731" y="762.5" width="148.75" height="70" as="geometry" />
        </mxCell>
        <mxCell id="2SMcXpaMJ3ifrrONPYiS-23" value="&lt;font style=&quot;color: light-dark(rgb(0, 0, 0), rgb(0, 0, 0));&quot;&gt;&amp;lt;&amp;lt;include&amp;gt;&amp;gt;&lt;/font&gt;" style="html=1;verticalAlign=bottom;labelBackgroundColor=none;endArrow=open;endFill=0;dashed=1;rounded=0;exitX=0.5;exitY=0;exitDx=0;exitDy=0;entryX=0.5;entryY=1;entryDx=0;entryDy=0;strokeColor=light-dark(#000000,#000000);fontColor=light-dark(#000000,#FFFFFF);fontStyle=1;strokeWidth=2;" parent="1" source="2SMcXpaMJ3ifrrONPYiS-20" target="2SMcXpaMJ3ifrrONPYiS-14" edge="1">
          <mxGeometry x="0.0074" width="160" relative="1" as="geometry">
            <mxPoint x="1924" y="734" as="sourcePoint" />
            <mxPoint x="2015" y="734" as="targetPoint" />
            <mxPoint as="offset" />
          </mxGeometry>
        </mxCell>
        <mxCell id="2SMcXpaMJ3ifrrONPYiS-24" value="Visualizar dieta" style="ellipse;whiteSpace=wrap;html=1;strokeColor=light-dark(#000000,#000000);fontColor=light-dark(#FFFFFF,#FFFFFF);fontStyle=1;fillColor=light-dark(#00813B,#00813B);" parent="1" vertex="1">
          <mxGeometry x="1020.12" y="384" width="148.75" height="70" as="geometry" />
        </mxCell>
        <mxCell id="2SMcXpaMJ3ifrrONPYiS-26" value="Monitorar calorias" style="ellipse;whiteSpace=wrap;html=1;strokeColor=light-dark(#000000,#000000);fontColor=light-dark(#FFFFFF,#FFFFFF);fontStyle=1;fillColor=light-dark(#00813B,#00813B);" parent="1" vertex="1">
          <mxGeometry x="1420.12" y="384" width="148.75" height="70" as="geometry" />
        </mxCell>
        <mxCell id="2SMcXpaMJ3ifrrONPYiS-28" value="Acompanhar progresso" style="ellipse;whiteSpace=wrap;html=1;strokeColor=light-dark(#000000,#000000);fontColor=light-dark(#ffffff, #FFFFFF);fontStyle=1;fillColor=light-dark(#00813B,#00813B);" parent="1" vertex="1">
          <mxGeometry x="1420.12" y="800" width="148.75" height="70" as="geometry" />
        </mxCell>
        <mxCell id="2SMcXpaMJ3ifrrONPYiS-30" value="Visualizar hist칩rico alimentar" style="ellipse;whiteSpace=wrap;html=1;strokeColor=light-dark(#000000,#000000);fontColor=light-dark(#ffffff, #FFFFFF);fontStyle=1;fillColor=light-dark(#00813B,#00813B);labelBackgroundColor=none;" parent="1" vertex="1">
          <mxGeometry x="1020.12" y="800" width="148.75" height="70" as="geometry" />
        </mxCell>
        <mxCell id="2SMcXpaMJ3ifrrONPYiS-34" value="Consultar jejum" style="ellipse;whiteSpace=wrap;html=1;strokeColor=light-dark(#000000,#000000);fontColor=light-dark(#FFFFFF,#FFFFFF);fontStyle=1;fillColor=light-dark(#00813B,#00813B);" parent="1" vertex="1">
          <mxGeometry x="1220.62" y="800" width="148.75" height="70" as="geometry" />
        </mxCell>
        <mxCell id="5LTry7u2sFWVebNsQszs-2" style="edgeStyle=orthogonalEdgeStyle;rounded=0;orthogonalLoop=1;jettySize=auto;html=1;entryX=0;entryY=0.5;entryDx=0;entryDy=0;strokeWidth=2;strokeColor=light-dark(#000000,#000000);" parent="1" source="2SMcXpaMJ3ifrrONPYiS-38" target="2SMcXpaMJ3ifrrONPYiS-51" edge="1">
          <mxGeometry relative="1" as="geometry" />
        </mxCell>
        <mxCell id="5LTry7u2sFWVebNsQszs-7" style="edgeStyle=orthogonalEdgeStyle;rounded=0;orthogonalLoop=1;jettySize=auto;html=1;entryX=0.5;entryY=0;entryDx=0;entryDy=0;strokeColor=light-dark(#000000,#000000);strokeWidth=2;" parent="1" source="2SMcXpaMJ3ifrrONPYiS-38" target="2SMcXpaMJ3ifrrONPYiS-34" edge="1">
          <mxGeometry relative="1" as="geometry" />
        </mxCell>
        <mxCell id="PRSw9WxDkvH_b6OgWoA3-9" style="edgeStyle=orthogonalEdgeStyle;rounded=0;orthogonalLoop=1;jettySize=auto;html=1;entryX=0.5;entryY=0;entryDx=0;entryDy=0;strokeColor=light-dark(#000000,#000000);strokeWidth=2;" parent="1" source="2SMcXpaMJ3ifrrONPYiS-38" target="2SMcXpaMJ3ifrrONPYiS-30" edge="1">
          <mxGeometry relative="1" as="geometry">
            <Array as="points">
              <mxPoint x="1294.12" y="690" />
              <mxPoint x="1094.12" y="690" />
            </Array>
          </mxGeometry>
        </mxCell>
        <mxCell id="PRSw9WxDkvH_b6OgWoA3-11" style="edgeStyle=orthogonalEdgeStyle;rounded=0;orthogonalLoop=1;jettySize=auto;html=1;entryX=0.5;entryY=1;entryDx=0;entryDy=0;strokeColor=light-dark(#000000,#000000);strokeWidth=2;" parent="1" source="2SMcXpaMJ3ifrrONPYiS-38" target="2SMcXpaMJ3ifrrONPYiS-24" edge="1">
          <mxGeometry relative="1" as="geometry">
            <Array as="points">
              <mxPoint x="1294.12" y="600" />
              <mxPoint x="1094.12" y="600" />
            </Array>
          </mxGeometry>
        </mxCell>
        <mxCell id="PRSw9WxDkvH_b6OgWoA3-14" style="edgeStyle=orthogonalEdgeStyle;rounded=0;orthogonalLoop=1;jettySize=auto;html=1;entryX=0.5;entryY=0;entryDx=0;entryDy=0;strokeWidth=2;strokeColor=light-dark(#000000,#000000);" parent="1" source="2SMcXpaMJ3ifrrONPYiS-38" target="2SMcXpaMJ3ifrrONPYiS-28" edge="1">
          <mxGeometry relative="1" as="geometry">
            <Array as="points">
              <mxPoint x="1294.12" y="690" />
              <mxPoint x="1494.12" y="690" />
            </Array>
          </mxGeometry>
        </mxCell>
        <mxCell id="PRSw9WxDkvH_b6OgWoA3-16" style="edgeStyle=orthogonalEdgeStyle;rounded=0;orthogonalLoop=1;jettySize=auto;html=1;exitX=0.5;exitY=0;exitDx=0;exitDy=0;entryX=0.5;entryY=1;entryDx=0;entryDy=0;strokeWidth=2;strokeColor=light-dark(#000000,#000000);" parent="1" source="2SMcXpaMJ3ifrrONPYiS-38" target="2SMcXpaMJ3ifrrONPYiS-26" edge="1">
          <mxGeometry relative="1" as="geometry">
            <Array as="points">
              <mxPoint x="1294" y="600" />
              <mxPoint x="1494" y="600" />
            </Array>
          </mxGeometry>
        </mxCell>
        <mxCell id="2SMcXpaMJ3ifrrONPYiS-38" value="Entrar na tela inicial do aplicativo" style="ellipse;whiteSpace=wrap;html=1;strokeColor=light-dark(#000000,#000000);fontColor=light-dark(#FFFFFF,#FFFFFF);fontStyle=1;gradientColor=none;fillColor=light-dark(#00813B,#00813B);" parent="1" vertex="1">
          <mxGeometry x="1220.12" y="608.5" width="148.75" height="70" as="geometry" />
        </mxCell>
        <mxCell id="5LTry7u2sFWVebNsQszs-11" style="edgeStyle=orthogonalEdgeStyle;rounded=0;orthogonalLoop=1;jettySize=auto;html=1;entryX=0;entryY=0.5;entryDx=0;entryDy=0;strokeWidth=2;strokeColor=light-dark(#000000,#000000);" parent="1" source="2SMcXpaMJ3ifrrONPYiS-51" target="2SMcXpaMJ3ifrrONPYiS-55" edge="1">
          <mxGeometry relative="1" as="geometry" />
        </mxCell>
        <mxCell id="5LTry7u2sFWVebNsQszs-12" style="edgeStyle=orthogonalEdgeStyle;rounded=0;orthogonalLoop=1;jettySize=auto;html=1;entryX=0;entryY=0.5;entryDx=0;entryDy=0;strokeColor=light-dark(#000000,#000000);strokeWidth=2;" parent="1" source="2SMcXpaMJ3ifrrONPYiS-51" target="2SMcXpaMJ3ifrrONPYiS-56" edge="1">
          <mxGeometry relative="1" as="geometry" />
        </mxCell>
        <mxCell id="5LTry7u2sFWVebNsQszs-13" style="edgeStyle=orthogonalEdgeStyle;rounded=0;orthogonalLoop=1;jettySize=auto;html=1;entryX=0;entryY=0.5;entryDx=0;entryDy=0;strokeColor=light-dark(#000000,#000000);strokeWidth=2;" parent="1" source="2SMcXpaMJ3ifrrONPYiS-51" target="2SMcXpaMJ3ifrrONPYiS-53" edge="1">
          <mxGeometry relative="1" as="geometry" />
        </mxCell>
        <mxCell id="2SMcXpaMJ3ifrrONPYiS-51" value="Editar perfil" style="ellipse;whiteSpace=wrap;html=1;strokeColor=light-dark(#000000,#000000);fontColor=light-dark(#FFFFFF,#FFFFFF);fontStyle=1;fillColor=light-dark(#00813B,#00813B);" parent="1" vertex="1">
          <mxGeometry x="1604" y="609.5" width="148.75" height="70" as="geometry" />
        </mxCell>
        <mxCell id="2SMcXpaMJ3ifrrONPYiS-53" value="Atualizar informa칞칫es gerais do perfil" style="ellipse;whiteSpace=wrap;html=1;strokeColor=light-dark(#000000,#000000);fontColor=light-dark(#ffffff, #FFFFFF);fontStyle=1;fillColor=light-dark(#00813B,#00813B);" parent="1" vertex="1">
          <mxGeometry x="1867.25" y="609.5" width="148.75" height="70" as="geometry" />
        </mxCell>
        <mxCell id="2SMcXpaMJ3ifrrONPYiS-55" value="Alterar senha" style="ellipse;whiteSpace=wrap;html=1;strokeColor=light-dark(#000000,#000000);fontColor=light-dark(#ffffff, #FFFFFF);fontStyle=1;fillColor=light-dark(#00813B,#00813B);" parent="1" vertex="1">
          <mxGeometry x="1867.25" y="455" width="148.75" height="70" as="geometry" />
        </mxCell>
        <mxCell id="2SMcXpaMJ3ifrrONPYiS-56" value="Deletar conta" style="ellipse;whiteSpace=wrap;html=1;strokeColor=light-dark(#000000,#000000);fontColor=light-dark(#ffffff, #FFFFFF);fontStyle=1;fillColor=light-dark(#00813B,#00813B);" parent="1" vertex="1">
          <mxGeometry x="1867.25" y="765" width="148.75" height="70" as="geometry" />
        </mxCell>
        <mxCell id="2SMcXpaMJ3ifrrONPYiS-59" value="Validar senha atual" style="ellipse;whiteSpace=wrap;html=1;strokeColor=light-dark(#000000,#000000);fontColor=light-dark(#ffffff, #FFFFFF);fontStyle=1;fillColor=light-dark(#00813B,#00813B);" parent="1" vertex="1">
          <mxGeometry x="2134" y="609.5" width="148.75" height="70" as="geometry" />
        </mxCell>
        <mxCell id="2SMcXpaMJ3ifrrONPYiS-63" value="Confirmar exclus칚o" style="ellipse;whiteSpace=wrap;html=1;strokeColor=light-dark(#000000,#000000);fontColor=light-dark(#FFFFFF,#FFFFFF);fontStyle=1;fillColor=light-dark(#00813B,#00813B);" parent="1" vertex="1">
          <mxGeometry x="2134" y="765" width="148.75" height="70" as="geometry" />
        </mxCell>
        <mxCell id="2SMcXpaMJ3ifrrONPYiS-64" value="&lt;font style=&quot;color: light-dark(rgb(0, 0, 0), rgb(0, 0, 0));&quot;&gt;&amp;lt;&amp;lt;include&amp;gt;&amp;gt;&lt;/font&gt;" style="html=1;verticalAlign=bottom;labelBackgroundColor=none;endArrow=open;endFill=0;dashed=1;rounded=0;exitX=0.5;exitY=1;exitDx=0;exitDy=0;strokeColor=light-dark(#000000,#000000);fontColor=light-dark(#000000,#FFFFFF);fontStyle=1;strokeWidth=2;entryX=0.5;entryY=0;entryDx=0;entryDy=0;" parent="1" source="2SMcXpaMJ3ifrrONPYiS-59" target="2SMcXpaMJ3ifrrONPYiS-63" edge="1">
          <mxGeometry x="0.0048" width="160" relative="1" as="geometry">
            <mxPoint x="2171.625" y="680.0000000000002" as="sourcePoint" />
            <mxPoint x="2172" y="765" as="targetPoint" />
            <mxPoint as="offset" />
          </mxGeometry>
        </mxCell>
        <mxCell id="2SMcXpaMJ3ifrrONPYiS-65" value="Definir nova senha (perfil)" style="ellipse;whiteSpace=wrap;html=1;strokeColor=light-dark(#000000,#000000);fontColor=light-dark(#FFFFFF,#FFFFFF);fontStyle=1;fillColor=light-dark(#00813B,#00813B);" parent="1" vertex="1">
          <mxGeometry x="2134" y="455" width="148.75" height="70" as="geometry" />
        </mxCell>
        <mxCell id="2SMcXpaMJ3ifrrONPYiS-66" value="&lt;font style=&quot;color: light-dark(rgb(0, 0, 0), rgb(0, 0, 0));&quot;&gt;&amp;lt;&amp;lt;include&amp;gt;&amp;gt;&lt;/font&gt;" style="html=1;verticalAlign=bottom;labelBackgroundColor=none;endArrow=open;endFill=0;dashed=1;rounded=0;entryX=0.5;entryY=1;entryDx=0;entryDy=0;exitX=0.5;exitY=0;exitDx=0;exitDy=0;strokeColor=light-dark(#000000,#000000);fontColor=light-dark(#000000,#FFFFFF);fontStyle=1;strokeWidth=2;" parent="1" source="2SMcXpaMJ3ifrrONPYiS-59" target="2SMcXpaMJ3ifrrONPYiS-65" edge="1">
          <mxGeometry x="0.0048" width="160" relative="1" as="geometry">
            <mxPoint x="2171.625" y="610" as="sourcePoint" />
            <mxPoint x="2171.625" y="525" as="targetPoint" />
            <mxPoint as="offset" />
          </mxGeometry>
        </mxCell>
        <mxCell id="2SMcXpaMJ3ifrrONPYiS-67" value="&lt;font style=&quot;color: light-dark(rgb(0, 0, 0), rgb(0, 0, 0));&quot;&gt;&amp;lt;&amp;lt;include&amp;gt;&amp;gt;&lt;/font&gt;" style="html=1;verticalAlign=bottom;labelBackgroundColor=none;endArrow=open;endFill=0;dashed=1;rounded=0;exitX=1;exitY=1;exitDx=0;exitDy=0;strokeColor=light-dark(#000000,#000000);fontColor=light-dark(#000000,#FFFFFF);fontStyle=1;strokeWidth=2;entryX=0.5;entryY=0;entryDx=0;entryDy=0;" parent="1" source="2SMcXpaMJ3ifrrONPYiS-55" target="2SMcXpaMJ3ifrrONPYiS-59" edge="1">
          <mxGeometry x="0.0048" width="160" relative="1" as="geometry">
            <mxPoint x="2074" y="660" as="sourcePoint" />
            <mxPoint x="2171.625" y="610" as="targetPoint" />
            <mxPoint as="offset" />
          </mxGeometry>
        </mxCell>
        <mxCell id="2SMcXpaMJ3ifrrONPYiS-69" value="&lt;span&gt;&lt;font face=&quot;Helvetica&quot;&gt;Recuperar senha&lt;/font&gt;&lt;/span&gt;" style="ellipse;whiteSpace=wrap;html=1;strokeColor=light-dark(#000000,#000000);fontColor=light-dark(#FFFFFF,#FFFFFF);fillColor=light-dark(#00813B,#00813B);fillStyle=solid;fontStyle=1" parent="1" vertex="1">
          <mxGeometry x="169" y="454" width="148.75" height="70" as="geometry" />
        </mxCell>
        <mxCell id="2SMcXpaMJ3ifrrONPYiS-71" value="&lt;font style=&quot;color: light-dark(rgb(0, 0, 0), rgb(4, 4, 4));&quot;&gt;&amp;lt;&amp;lt;extend&amp;gt;&amp;gt;&lt;/font&gt;" style="html=1;verticalAlign=bottom;labelBackgroundColor=none;endArrow=open;endFill=0;dashed=1;rounded=0;entryX=0.5;entryY=0;entryDx=0;entryDy=0;strokeColor=light-dark(#000000,#000000);fontColor=light-dark(#000000,#FFFFFF);fontStyle=1;strokeWidth=2;exitX=0.5;exitY=1;exitDx=0;exitDy=0;" parent="1" source="2SMcXpaMJ3ifrrONPYiS-69" target="2SMcXpaMJ3ifrrONPYiS-2" edge="1">
          <mxGeometry x="-0.0026" width="160" relative="1" as="geometry">
            <mxPoint x="309" y="577.5" as="sourcePoint" />
            <mxPoint x="239" y="617.5" as="targetPoint" />
            <mxPoint as="offset" />
          </mxGeometry>
        </mxCell>
        <mxCell id="2SMcXpaMJ3ifrrONPYiS-73" value="Confirmar identidade" style="ellipse;whiteSpace=wrap;html=1;strokeColor=light-dark(#000000,#000000);fontColor=light-dark(#FFFFFF,#FFFFFF);fontStyle=1;fillColor=light-dark(#00813B,#00813B);" parent="1" vertex="1">
          <mxGeometry x="454" y="454" width="148.75" height="70" as="geometry" />
        </mxCell>
        <mxCell id="2SMcXpaMJ3ifrrONPYiS-74" value="&lt;font style=&quot;color: light-dark(rgb(0, 0, 0), rgb(4, 4, 4));&quot;&gt;&amp;lt;&amp;lt;include&amp;gt;&amp;gt;&lt;/font&gt;" style="html=1;verticalAlign=bottom;labelBackgroundColor=none;endArrow=open;endFill=0;dashed=1;rounded=0;exitX=1;exitY=0.5;exitDx=0;exitDy=0;entryX=0;entryY=0.5;entryDx=0;entryDy=0;fontColor=light-dark(#000000,#FFFFFF);fillColor=#f5f5f5;strokeColor=light-dark(#000000,#000000);fontStyle=1;strokeWidth=2;" parent="1" source="2SMcXpaMJ3ifrrONPYiS-69" target="2SMcXpaMJ3ifrrONPYiS-73" edge="1">
          <mxGeometry x="0.37" width="160" relative="1" as="geometry">
            <mxPoint x="339" y="501.94" as="sourcePoint" />
            <mxPoint x="690" y="501.94" as="targetPoint" />
            <mxPoint as="offset" />
          </mxGeometry>
        </mxCell>
        <mxCell id="2SMcXpaMJ3ifrrONPYiS-75" value="Definir nova senha (recupera칞칚o)" style="ellipse;whiteSpace=wrap;html=1;strokeColor=light-dark(#000000,#000000);fontColor=light-dark(#FFFFFF,#FFFFFF);fontStyle=1;fillColor=light-dark(#00813B,#00813B);" parent="1" vertex="1">
          <mxGeometry x="731" y="454" width="148.75" height="70" as="geometry" />
        </mxCell>
        <mxCell id="2SMcXpaMJ3ifrrONPYiS-82" value="&lt;font style=&quot;color: light-dark(rgb(0, 0, 0), rgb(4, 4, 4));&quot;&gt;&amp;lt;&amp;lt;extend&amp;gt;&amp;gt;&lt;/font&gt;" style="html=1;verticalAlign=bottom;labelBackgroundColor=none;endArrow=open;endFill=0;dashed=1;rounded=0;strokeColor=light-dark(#000000,#000000);fontColor=light-dark(#000000,#FFFFFF);fontStyle=1;entryX=0.5;entryY=1;entryDx=0;entryDy=0;strokeWidth=2;exitX=0.5;exitY=0;exitDx=0;exitDy=0;" parent="1" source="2SMcXpaMJ3ifrrONPYiS-9" target="2SMcXpaMJ3ifrrONPYiS-2" edge="1">
          <mxGeometry x="-0.2118" width="160" relative="1" as="geometry">
            <mxPoint x="329" y="737.5" as="sourcePoint" />
            <mxPoint x="339" y="727.5" as="targetPoint" />
            <mxPoint as="offset" />
          </mxGeometry>
        </mxCell>
        <mxCell id="5LTry7u2sFWVebNsQszs-14" value="&lt;font style=&quot;color: light-dark(rgb(0, 0, 0), rgb(0, 0, 0));&quot;&gt;&amp;lt;&amp;lt;include&amp;gt;&amp;gt;&lt;/font&gt;" style="html=1;verticalAlign=bottom;labelBackgroundColor=none;endArrow=open;endFill=0;dashed=1;rounded=0;exitX=1;exitY=0;exitDx=0;exitDy=0;strokeColor=light-dark(#000000,#000000);fontColor=light-dark(#000000,#FFFFFF);fontStyle=1;strokeWidth=2;entryX=0.5;entryY=1;entryDx=0;entryDy=0;" parent="1" source="2SMcXpaMJ3ifrrONPYiS-56" target="2SMcXpaMJ3ifrrONPYiS-59" edge="1">
          <mxGeometry x="0.0105" width="160" relative="1" as="geometry">
            <mxPoint x="2064" y="775" as="sourcePoint" />
            <mxPoint x="2171.625" y="680.0000000000002" as="targetPoint" />
            <mxPoint as="offset" />
          </mxGeometry>
        </mxCell>
        <mxCell id="SrDbohH_9_1pmWmJlch3-1" value="" style="html=1;verticalAlign=bottom;labelBackgroundColor=none;endArrow=open;endFill=0;dashed=1;rounded=0;exitX=0.5;exitY=0.5;exitDx=0;exitDy=0;strokeColor=light-dark(#000000,#000000);fontColor=light-dark(#000000,#FFFFFF);fontStyle=1;strokeWidth=2;exitPerimeter=0;entryX=0;entryY=0.5;entryDx=0;entryDy=0;" parent="1" target="2SMcXpaMJ3ifrrONPYiS-2" edge="1">
          <mxGeometry x="0.6673" y="4" width="160" relative="1" as="geometry">
            <mxPoint x="79" y="643" as="sourcePoint" />
            <mxPoint x="214" y="643" as="targetPoint" />
            <mxPoint as="offset" />
          </mxGeometry>
        </mxCell>
        <mxCell id="PRSw9WxDkvH_b6OgWoA3-4" value="&lt;font style=&quot;color: light-dark(rgb(0, 0, 0), rgb(4, 4, 4));&quot;&gt;&amp;lt;&amp;lt;include&amp;gt;&amp;gt;&lt;/font&gt;" style="html=1;verticalAlign=bottom;labelBackgroundColor=none;endArrow=open;endFill=0;dashed=1;rounded=0;exitX=1;exitY=0.5;exitDx=0;exitDy=0;entryX=0;entryY=0.5;entryDx=0;entryDy=0;fontColor=light-dark(#000000,#FFFFFF);fillColor=#f5f5f5;strokeColor=light-dark(#000000,#000000);fontStyle=1;strokeWidth=2;" parent="1" source="2SMcXpaMJ3ifrrONPYiS-73" target="2SMcXpaMJ3ifrrONPYiS-75" edge="1">
          <mxGeometry x="0.3663" width="160" relative="1" as="geometry">
            <mxPoint x="592.75" y="502.02" as="sourcePoint" />
            <mxPoint x="718.75" y="502.02" as="targetPoint" />
            <mxPoint as="offset" />
          </mxGeometry>
        </mxCell>
        <mxCell id="PRSw9WxDkvH_b6OgWoA3-6" value="&lt;font style=&quot;color: light-dark(rgb(0, 0, 0), rgb(4, 4, 4));&quot;&gt;&amp;lt;&amp;lt;include&amp;gt;&amp;gt;&lt;/font&gt;" style="html=1;verticalAlign=bottom;labelBackgroundColor=none;endArrow=open;endFill=0;dashed=1;rounded=0;exitX=1;exitY=0.5;exitDx=0;exitDy=0;entryX=0;entryY=0.5;entryDx=0;entryDy=0;fontColor=light-dark(#000000,#FFFFFF);fillColor=#f5f5f5;strokeColor=light-dark(#000000,#000000);fontStyle=1;strokeWidth=2;" parent="1" source="2SMcXpaMJ3ifrrONPYiS-18" target="2SMcXpaMJ3ifrrONPYiS-20" edge="1">
          <mxGeometry x="0.3663" width="160" relative="1" as="geometry">
            <mxPoint x="603" y="797.02" as="sourcePoint" />
            <mxPoint x="731" y="797.02" as="targetPoint" />
            <mxPoint as="offset" />
          </mxGeometry>
        </mxCell>
        <mxCell id="PRSw9WxDkvH_b6OgWoA3-8" value="&lt;font style=&quot;color: light-dark(rgb(0, 0, 0), rgb(4, 4, 4));&quot;&gt;&amp;lt;&amp;lt;include&amp;gt;&amp;gt;&lt;/font&gt;" style="html=1;verticalAlign=bottom;labelBackgroundColor=none;endArrow=open;endFill=0;dashed=1;rounded=0;exitX=1;exitY=0.5;exitDx=0;exitDy=0;entryX=0;entryY=0.5;entryDx=0;entryDy=0;strokeColor=light-dark(#000000,#000000);fontColor=light-dark(#000000,#FFFFFF);fontStyle=1;strokeWidth=2;" parent="1" source="2SMcXpaMJ3ifrrONPYiS-14" target="2SMcXpaMJ3ifrrONPYiS-38" edge="1">
          <mxGeometry x="0.7725" width="160" relative="1" as="geometry">
            <mxPoint x="944" y="642.91" as="sourcePoint" />
            <mxPoint x="1357" y="642.91" as="targetPoint" />
            <mxPoint as="offset" />
          </mxGeometry>
        </mxCell>
        <mxCell id="PRSw9WxDkvH_b6OgWoA3-19" value="&lt;font face=&quot;Helvetica&quot; style=&quot;color: light-dark(rgb(0, 0, 0), rgb(0, 0, 0)); font-size: 42px;&quot;&gt;&lt;b style=&quot;&quot;&gt;Dieta-se&lt;/b&gt;&lt;/font&gt;" style="text;html=1;align=center;verticalAlign=middle;whiteSpace=wrap;rounded=0;strokeWidth=10;" parent="1" vertex="1">
          <mxGeometry x="1208.99" y="330" width="171" height="30" as="geometry" />
        </mxCell>
        <mxCell id="XTD6DdqdJ_cQa2gOMtwA-1" value="" style="rounded=0;whiteSpace=wrap;html=1;fillColor=none;strokeWidth=2;strokeColor=light-dark(#000000,#000000);" vertex="1" parent="1">
          <mxGeometry x="140" y="310" width="2180" height="580" as="geometry" />
        </mxCell>
      </root>
    </mxGraphModel>
  </diagram>
</mxfile>
